<svg width="20" height="16" viewBox="0 0 20 16" fill="none" xmlns="http://www.w3.org/2000/svg">
<path fill-rule="evenodd" clip-rule="evenodd" d="M1.90734 1.74108C0.833008 2.8145 0.833008 4.54333 0.833008 8.00008C0.833008 11.4568 0.833008 13.1857 1.90734 14.2591C2.98167 15.3325 4.70959 15.3334 8.16634 15.3334H11.833C15.2898 15.3334 17.0186 15.3334 18.092 14.2591C19.1654 13.1847 19.1663 11.4568 19.1663 8.00008C19.1663 4.54333 19.1663 2.8145 18.092 1.74108C17.0177 0.667665 15.2898 0.666748 11.833 0.666748H8.16634C4.70959 0.666748 2.98076 0.666748 1.90734 1.74108ZM16.0277 3.89341C16.1443 4.03347 16.2006 4.21411 16.1841 4.39563C16.1676 4.57715 16.0797 4.74469 15.9397 4.86141L13.9267 6.53892C13.1136 7.21725 12.4554 7.76542 11.8733 8.13942C11.2683 8.529 10.6789 8.77466 9.99967 8.77466C9.32043 8.77466 8.73101 8.52808 8.12509 8.13942C7.54392 7.76542 6.88576 7.21633 6.07267 6.53983L4.05967 4.86233C3.91952 4.74564 3.83146 4.57804 3.81487 4.39642C3.79828 4.2148 3.85452 4.03403 3.97122 3.89387C4.08791 3.75372 4.2555 3.66566 4.43712 3.64907C4.61875 3.63248 4.79952 3.68872 4.93967 3.80541L6.91967 5.4545C7.77492 6.16675 8.36801 6.65991 8.87034 6.98258C9.35526 7.29425 9.68434 7.39966 10.0006 7.39966C10.3168 7.39966 10.6459 7.29517 11.1308 6.98258C11.6323 6.65991 12.2263 6.16675 13.0815 5.4545L15.0606 3.8045C15.2008 3.68796 15.3815 3.63186 15.563 3.64853C15.7445 3.66521 15.9111 3.75329 16.0277 3.89341Z" fill="white"/>
</svg>
