<svg width="110" height="110" viewBox="0 0 110 110" fill="none" xmlns="http://www.w3.org/2000/svg">
<path d="M36.0554 99.7775L41.222 101.5L40.1521 105.779C39.9658 106.525 39.5358 107.186 38.9303 107.659C38.3249 108.132 37.5788 108.388 36.8106 108.388H32.6109C32.1541 108.388 31.7161 108.207 31.3931 107.884C31.0701 107.561 30.8887 107.123 30.8887 106.666V101.5L36.0554 99.7775ZM73.944 99.7775L68.7774 101.5L69.8474 105.779C70.0337 106.525 70.4637 107.186 71.0691 107.659C71.6746 108.132 72.4207 108.388 73.1888 108.388H77.3884C77.8451 108.388 78.2832 108.207 78.6062 107.884C78.9291 107.561 79.1106 107.123 79.1106 106.666V101.5L73.944 99.7775Z" fill="white"/>
<path d="M73.9437 108.389H77.3881C77.8449 108.389 78.2829 108.207 78.6059 107.884C78.9289 107.561 79.1103 107.123 79.1103 106.667V101.5H73.9437V108.389ZM36.3283 100.407L34.333 108.389H36.8104C37.5785 108.389 38.3246 108.132 38.9301 107.659C39.5355 107.186 39.9656 106.525 40.1518 105.78L41.2218 101.5L36.3283 100.407Z" fill="white"/>
<path d="M79.1108 101.5H30.8887V5.0557C30.8887 3.15348 32.4308 1.61133 34.333 1.61133H75.6662C77.5684 1.61133 79.1106 3.15348 79.1106 5.0557V101.5H79.1108Z" fill="white"/>
<path d="M37.7773 11.9446H72.2217V94.6109H37.7773V11.9446Z" fill="white"/>
<path d="M30.8887 96.2107V101.5H79.1108V5.0557C79.1108 3.15326 77.5686 1.61133 75.6664 1.61133H73.8276V94.4885C73.8276 94.9452 73.6461 95.3833 73.3231 95.7063C73.0002 96.0292 72.5621 96.2107 72.1054 96.2107H30.8887Z" fill="white"/>
<path d="M54.9994 87.722C64.5109 87.722 72.2215 80.0114 72.2215 70.4999C72.2215 60.9884 64.5109 53.2778 54.9994 53.2778C45.4879 53.2778 37.7773 60.9884 37.7773 70.4999C37.7773 80.0114 45.4879 87.722 54.9994 87.722Z" fill="white"/>
<path d="M54.9994 53.2778C45.4879 53.2778 37.7773 60.9884 37.7773 70.4999C37.7773 80.0115 45.4881 87.722 54.9994 87.722C64.5108 87.722 72.2215 80.0113 72.2215 70.4999C72.2215 60.9884 64.511 53.2778 54.9994 53.2778ZM54.9994 82.5554C48.3414 82.5554 42.9439 77.1579 42.9439 70.4999C42.9439 63.8419 48.3414 58.4444 54.9994 58.4444C61.6574 58.4444 67.055 63.8419 67.055 70.4999C67.055 77.1579 61.6574 82.5554 54.9994 82.5554Z" fill="white"/>
<path d="M54.9996 53.2778C53.2472 53.2769 51.5049 53.5436 49.833 54.0687V70.4999H54.9996V65.3334H71.4308C69.236 58.3464 62.7107 53.2778 54.9996 53.2778Z" fill="white"/>
<path d="M54.9996 87.722C56.752 87.7229 58.4943 87.4562 60.1662 86.9311V70.4999H54.9996V75.6664H38.5684C40.7632 82.6534 47.2884 87.722 54.9996 87.722Z" fill="white"/>
<path d="M54.9996 75.6664C57.853 75.6664 60.1661 73.3533 60.1661 70.4999C60.1661 67.6465 57.853 65.3333 54.9996 65.3333C52.1462 65.3333 49.833 67.6465 49.833 70.4999C49.833 73.3533 52.1462 75.6664 54.9996 75.6664Z" fill="white"/>
<path d="M54.9996 53.2778C53.2472 53.2769 51.5049 53.5436 49.833 54.0687V59.6202C51.4007 58.8743 53.1478 58.4446 54.9996 58.4446C59.8058 58.4446 63.9433 61.2642 65.8795 65.3336H71.4308C69.236 58.3464 62.7107 53.2778 54.9996 53.2778Z" fill="white"/>
<path d="M60.166 86.9313H60.1662V81.3798C58.5985 82.1257 56.8511 82.5554 54.9996 82.5554C50.1933 82.5554 46.0559 79.7358 44.1197 75.6664H38.5684C38.5686 75.6669 38.5687 75.6674 38.5688 75.668C40.7645 82.6538 47.2891 87.722 54.9996 87.722C56.8 87.722 58.5349 87.4438 60.166 86.9313Z" fill="white"/>
<path d="M54.9994 53.2778C64.5109 53.2778 72.2215 45.5672 72.2215 36.0557C72.2215 26.5442 64.5109 18.8336 54.9994 18.8336C45.4879 18.8336 37.7773 26.5442 37.7773 36.0557C37.7773 45.5672 45.4879 53.2778 54.9994 53.2778Z" fill="white"/>
<path d="M71.4472 30.9343L63.0247 20.8139C60.6283 19.5493 57.8975 18.8334 54.9994 18.8334C45.4879 18.8334 37.7773 26.544 37.7773 36.0557C37.7773 45.5671 45.4879 53.2778 54.9994 53.2778C64.511 53.2778 72.2215 45.5671 72.2215 36.0557C72.2233 34.3193 71.9622 32.5926 71.4472 30.9343ZM54.9994 48.1113C48.3414 48.1113 42.9439 42.7137 42.9439 36.0557C42.9439 29.3977 48.3414 24 54.9994 24C61.6574 24 67.055 29.3975 67.055 36.0555C67.055 42.7135 61.6574 48.1113 54.9994 48.1113Z" fill="white"/>
<path d="M65.2837 22.2411C62.4143 20.1008 58.8552 18.8334 54.9996 18.8334C53.2471 18.8324 51.5049 19.0992 49.833 19.6245V36.0557H54.9996V30.8892H66.6602L65.2837 22.2411Z" fill="white"/>
<path d="M54.9996 53.2778C56.752 53.2788 58.4943 53.0121 60.1662 52.487V36.0557H54.9996V41.2223H38.5684C40.7632 48.209 47.2884 53.2778 54.9996 53.2778Z" fill="white"/>
<path d="M54.9996 41.2223C57.853 41.2223 60.1661 38.9091 60.1661 36.0557C60.1661 33.2023 57.853 30.8892 54.9996 30.8892C52.1462 30.8892 49.833 33.2023 49.833 36.0557C49.833 38.9091 52.1462 41.2223 54.9996 41.2223Z" fill="white"/>
<path d="M54.9996 18.8334C53.2472 18.8325 51.5049 19.0992 49.833 19.6243V25.1758C51.4007 24.4299 53.1478 24.0002 54.9996 24.0002C59.8058 24.0002 63.9433 26.8198 65.8795 30.8892H71.4308C69.236 23.9022 62.7107 18.8334 54.9996 18.8334Z" fill="white"/>
<path d="M60.166 52.4869H60.1662V46.9354C58.5985 47.6813 56.8511 48.111 54.9996 48.111C50.1933 48.111 46.0559 45.2914 44.1197 41.222H38.5684C38.5686 41.2225 38.5687 41.223 38.5688 41.2236C40.7645 48.2094 47.2891 53.2776 54.9996 53.2776C56.7519 53.2787 58.4942 53.0121 60.166 52.4869Z" fill="white"/>
<path d="M41.222 101.5L40.1521 105.78C39.9658 106.525 39.5357 107.186 38.9302 107.659C38.3247 108.132 37.5786 108.389 36.8104 108.389H32.6109C32.1541 108.389 31.7161 108.207 31.3931 107.884C31.0701 107.561 30.8887 107.123 30.8887 106.666V101.5M68.7774 101.5L69.8474 105.78C70.0337 106.525 70.4637 107.186 71.0692 107.659C71.6747 108.132 72.4209 108.389 73.189 108.389H77.3886C77.8453 108.389 78.2834 108.207 78.6064 107.884C78.9293 107.561 79.1108 107.123 79.1108 106.666V101.5M79.1108 101.5H30.8887V5.0557C30.8887 3.15348 32.4308 1.61133 34.333 1.61133H75.6662C77.5684 1.61133 79.1106 3.15348 79.1106 5.0557V101.5H79.1108Z" stroke="#071B3B" stroke-width="2" stroke-miterlimit="10" stroke-linecap="round" stroke-linejoin="round"/>
<path d="M71.433 30.8887C71.9574 32.5608 72.2233 34.3032 72.2215 36.0555C72.2215 45.5671 64.511 53.2776 54.9994 53.2776C45.4879 53.2776 37.7773 45.5671 37.7773 36.0555C37.7773 26.544 45.4879 18.8334 54.9994 18.8334C58.8771 18.8334 62.4554 20.115 65.3341 22.2776" stroke="#071B3B" stroke-width="2" stroke-miterlimit="10" stroke-linecap="round" stroke-linejoin="round"/>
<path d="M54.9996 41.2223C57.853 41.2223 60.1661 38.9091 60.1661 36.0557C60.1661 33.2023 57.853 30.8892 54.9996 30.8892C52.1462 30.8892 49.833 33.2023 49.833 36.0557C49.833 38.9091 52.1462 41.2223 54.9996 41.2223Z" stroke="#071B3B" stroke-width="2" stroke-miterlimit="10" stroke-linecap="round" stroke-linejoin="round"/>
<path d="M54.9999 30.8889H70.4998M39.5 41.2223H54.9999M60.1665 36.0557V51.5556M49.8333 20.5556V36.0557" stroke="#071B3B" stroke-width="2" stroke-miterlimit="10" stroke-linecap="round" stroke-linejoin="round"/>
<path d="M54.9994 87.722C64.5109 87.722 72.2215 80.0114 72.2215 70.4999C72.2215 60.9884 64.5109 53.2778 54.9994 53.2778C45.4879 53.2778 37.7773 60.9884 37.7773 70.4999C37.7773 80.0114 45.4879 87.722 54.9994 87.722Z" stroke="#071B3B" stroke-width="2" stroke-miterlimit="10" stroke-linecap="round" stroke-linejoin="round"/>
<path d="M54.9996 75.6664C57.853 75.6664 60.1661 73.3533 60.1661 70.4999C60.1661 67.6465 57.853 65.3333 54.9996 65.3333C52.1462 65.3333 49.833 67.6465 49.833 70.4999C49.833 73.3533 52.1462 75.6664 54.9996 75.6664Z" stroke="#071B3B" stroke-width="2" stroke-miterlimit="10" stroke-linecap="round" stroke-linejoin="round"/>
<path d="M54.9994 65.3333H70.4993M39.4995 75.6667H54.9994M60.166 70.4999V85.9998M49.8329 55V70.4999M37.7773 70.4999V11.9447H72.2215V94.611H37.7773V87.722M37.7773 1.61133V5.0557M44.6661 1.61133V5.0557M51.5551 1.61133V5.0557M58.4438 1.61133V5.0557M65.3328 1.61133V5.0557M72.2215 1.61133V5.0557" stroke="#071B3B" stroke-miterlimit="10" stroke-linecap="round" stroke-linejoin="round"/>
</svg>
