<svg width="100" height="100" viewBox="0 0 100 100" fill="none" xmlns="http://www.w3.org/2000/svg">
<g clip-path="url(#clip0_206_8129)">
<path d="M72.3144 0H27.6855C25.7675 0.00217116 23.9287 0.765059 22.5725 2.1213C21.2162 3.47754 20.4533 5.31637 20.4512 7.23438V92.7658C20.4534 94.6839 21.2164 96.5227 22.5727 97.8789C23.929 99.2351 25.7679 99.9979 27.6859 100H72.3148C74.2328 99.9978 76.0716 99.235 77.4278 97.8788C78.7841 96.5226 79.547 94.6838 79.5492 92.7658V7.23438C79.547 5.3163 78.7841 3.47741 77.4278 2.12116C76.0715 0.76491 74.2325 0.00206778 72.3144 0ZM27.6855 4.6875H72.3144C72.9897 4.68828 73.637 4.95686 74.1145 5.43432C74.592 5.91178 74.8606 6.55914 74.8613 7.23438V79.9793H25.1391V7.23438C25.1398 6.55914 25.4084 5.91178 25.8859 5.43432C26.3633 4.95686 27.0107 4.68828 27.6859 4.6875H27.6855ZM72.3144 95.3125H27.6855C27.0103 95.3118 26.363 95.0432 25.8855 94.5658C25.408 94.0884 25.1394 93.441 25.1387 92.7658V84.6668H74.8613V92.7658C74.8606 93.441 74.592 94.0884 74.1145 94.5658C73.637 95.0432 72.9897 95.3118 72.3144 95.3125ZM42.2156 11.9797C42.2156 11.3581 42.4626 10.7619 42.9021 10.3224C43.3416 9.88287 43.9378 9.63594 44.5594 9.63594H55.1209C55.7425 9.63594 56.3386 9.88287 56.7782 10.3224C57.2177 10.7619 57.4646 11.3581 57.4646 11.9797C57.4646 12.6013 57.2177 13.1974 56.7782 13.637C56.3386 14.0765 55.7425 14.3234 55.1209 14.3234H44.5594C43.9378 14.3234 43.3416 14.0765 42.9021 13.637C42.4626 13.1974 42.2156 12.6013 42.2156 11.9797ZM55.1344 89.9896C55.1344 90.6113 54.8874 91.2074 54.4479 91.6469C54.0084 92.0865 53.4122 92.3334 52.7906 92.3334H47.2098C46.5882 92.3334 45.992 92.0865 45.5525 91.6469C45.1129 91.2074 44.866 90.6113 44.866 89.9896C44.866 89.368 45.1129 88.7719 45.5525 88.3324C45.992 87.8928 46.5882 87.6459 47.2098 87.6459H52.7906C53.4122 87.6459 54.0084 87.8928 54.4479 88.3324C54.8874 88.7719 55.1344 89.368 55.1344 89.9896Z" fill="#071B3B"/>
</g>
<defs>
<clipPath id="clip0_206_8129">
<rect width="100" height="100" fill="white"/>
</clipPath>
</defs>
</svg>
