<svg width="130" height="130" viewBox="0 0 130 130" fill="none" xmlns="http://www.w3.org/2000/svg">
<path d="M107.823 34.5145C98.2943 28.4733 92.1346 29.8642 83.4372 34.7796C78.0961 37.7988 71.5466 39.3082 64.9993 39.3087C58.4513 39.3087 51.9036 37.7988 46.5614 34.7796C41.889 32.1387 37.9479 30.515 33.8242 30.515C30.2723 30.515 26.5853 31.7187 22.1755 34.5145C11.6369 41.1958 2.44597 68.8535 4.29492 88.3213C5.18156 97.6592 9.3479 104.251 15.7258 106.407C22.6188 108.737 31.0942 105.654 37.8433 98.3602C45.854 89.7025 54.2243 85.7921 64.9836 85.6807H65.0151C75.7741 85.7919 84.1446 89.7025 92.1556 98.3602C98.9047 105.654 107.379 108.737 114.273 106.407C120.651 104.251 124.817 97.6592 125.704 88.3213C127.553 68.8538 118.362 41.196 107.823 34.5145ZM49.7045 68.8111C49.7045 69.2152 49.544 69.6027 49.2583 69.8884C48.9726 70.1741 48.5851 70.3346 48.1811 70.3346H40.4669V78.049C40.4669 78.453 40.3064 78.8405 40.0207 79.1262C39.735 79.4119 39.3475 79.5724 38.9435 79.5724H29.7056C29.3016 79.5724 28.9141 79.4119 28.6284 79.1262C28.3427 78.8405 28.1822 78.453 28.1822 78.049V70.3346H20.468C20.0639 70.3346 19.6764 70.1741 19.3907 69.8884C19.1051 69.6027 18.9445 69.2152 18.9445 68.8111V59.5733C18.9445 59.1692 19.1051 58.7817 19.3907 58.496C19.6764 58.2103 20.0639 58.0498 20.468 58.0498H28.1822V50.3354C28.1822 49.9313 28.3427 49.5438 28.6284 49.2582C28.9141 48.9725 29.3016 48.8119 29.7056 48.8119H38.9435C39.3475 48.8119 39.735 48.9725 40.0207 49.2582C40.3064 49.5438 40.4669 49.9313 40.4669 50.3354V58.0498H48.1811C48.5851 58.0498 48.9726 58.2103 49.2583 58.496C49.544 58.7817 49.7045 59.1692 49.7045 59.5733V68.8111ZM94.2262 47.3639C97.6623 47.3639 100.458 50.1597 100.458 53.5958C100.458 57.0319 97.6623 59.8277 94.2262 59.8277C90.7901 59.8277 87.9944 57.0319 87.9944 53.5958C87.9944 50.1597 90.7901 47.3639 94.2262 47.3639ZM77.3981 64.1921C77.3981 60.7559 80.1936 57.9602 83.63 57.9602C87.0663 57.9602 89.8618 60.7559 89.8618 64.1921C89.8618 67.6282 87.0661 70.4239 83.63 70.4239C80.1938 70.4239 77.3981 67.6282 77.3981 64.1921ZM94.2262 81.0202C90.7901 81.0202 87.9944 78.2244 87.9944 74.7883C87.9944 71.3522 90.7901 68.5565 94.2262 68.5565C97.6623 68.5565 100.458 71.3522 100.458 74.7883C100.458 78.2244 97.6623 81.0202 94.2262 81.0202ZM104.823 70.4239C101.386 70.4239 98.5906 67.6282 98.5906 64.1921C98.5906 60.7559 101.386 57.9602 104.823 57.9602C108.259 57.9602 111.054 60.7559 111.054 64.1921C111.054 67.6282 108.259 70.4239 104.823 70.4239Z" fill="white"/>
<path d="M94.2268 68.5567C90.7907 68.5567 87.995 71.3525 87.995 74.7886C87.995 78.2247 90.7907 81.0205 94.2268 81.0205C97.663 81.0205 100.459 78.2247 100.459 74.7886C100.459 71.3525 97.663 68.5567 94.2268 68.5567ZM94.2268 77.9736C92.4706 77.9736 91.0418 76.5449 91.0418 74.7886C91.0418 73.0324 92.4706 71.6036 94.2268 71.6036C95.9831 71.6036 97.4118 73.0324 97.4118 74.7886C97.4118 76.5449 95.9831 77.9736 94.2268 77.9736ZM89.8622 64.1924C89.8622 60.7562 87.0664 57.9605 83.6303 57.9605C80.1942 57.9605 77.3984 60.7562 77.3984 64.1924C77.3984 67.6285 80.1939 70.4242 83.6303 70.4242C87.0667 70.4242 89.8622 67.6285 89.8622 64.1924ZM83.6303 67.3774C81.874 67.3774 80.4453 65.9486 80.4453 64.1924C80.4453 62.4361 81.874 61.0073 83.6303 61.0073C85.3866 61.0073 86.8153 62.4361 86.8153 64.1924C86.8153 65.9486 85.3866 67.3774 83.6303 67.3774ZM94.2268 59.8277C97.663 59.8277 100.459 57.0319 100.459 53.5958C100.459 50.1597 97.663 47.364 94.2268 47.364C90.7907 47.364 87.995 50.1597 87.995 53.5958C87.995 57.0319 90.7907 59.8277 94.2268 59.8277ZM94.2268 50.4108C95.9831 50.4108 97.4118 51.8396 97.4118 53.5958C97.4118 55.3521 95.9831 56.7808 94.2268 56.7808C92.4706 56.7808 91.0418 55.3521 91.0418 53.5958C91.0418 51.8396 92.4706 50.4108 94.2268 50.4108Z" fill="#071B3B"/>
<path d="M109.847 32.2012V27.4676C109.847 22.1597 102.669 19.7836 95.5559 19.7836C88.4428 19.7836 81.2648 22.1594 81.2648 27.4676V32.4904C71.706 37.5494 58.2927 37.5494 48.7341 32.4904V27.4676C48.7341 22.1597 41.5564 19.7836 34.443 19.7836C27.3295 19.7836 20.1519 22.1594 20.1519 27.4676V32.2012C14.6248 35.9425 9.35197 44.5164 5.6325 55.847C1.99884 66.9165 0.364958 79.1642 1.26201 88.6095C2.26722 99.1966 7.18361 106.736 14.7505 109.294C16.5858 109.914 18.5063 110.216 20.4687 110.216C27.113 110.216 34.2315 106.751 40.0802 100.43C47.4702 92.4432 55.1567 88.8337 64.9998 88.7278C74.843 88.8337 82.5295 92.4432 89.9195 100.43C97.496 108.618 107.202 112.014 115.249 109.294C122.816 106.736 127.732 99.1966 128.737 88.6095C129.634 79.1644 128.001 66.9168 124.367 55.8472C120.647 44.5169 115.374 35.9425 109.847 32.2014L109.847 32.2012ZM84.3117 27.4676C84.3117 24.5649 90.0289 22.8305 95.5559 22.8305C98.6533 22.8305 101.634 23.3467 103.733 24.2473C105.133 24.8473 106.8 25.8929 106.8 27.4676V30.4C98.3388 25.933 91.8009 27.0238 84.3117 30.8481V27.4676ZM23.1987 27.4676C23.1987 24.5649 28.916 22.8305 34.443 22.8305C37.5404 22.8305 40.521 23.3467 42.6203 24.2473C44.0193 24.8473 45.6872 25.8929 45.6872 27.4676V30.8481C38.198 27.0238 31.6599 25.933 23.1987 30.3997V27.4676ZM125.704 88.3211C124.817 97.659 120.651 104.251 114.273 106.407C107.379 108.737 98.9047 105.654 92.1556 98.36C84.1446 89.7023 75.7741 85.7919 65.0151 85.6804H64.9836C54.2243 85.7916 45.854 89.7023 37.8433 98.36C31.0942 105.654 22.6188 108.737 15.7258 106.407C9.34791 104.251 5.18156 97.659 4.29492 88.3211C2.44597 68.8533 11.6371 41.1955 22.1755 34.5143C26.5853 31.7185 30.2723 30.5147 33.8242 30.5147C37.9479 30.5147 41.889 32.1385 46.5614 34.7793C51.9036 37.7985 58.4513 39.3088 64.9993 39.3085C71.5466 39.308 78.0961 37.7985 83.4372 34.7793C92.1346 29.864 98.2943 28.4731 107.823 34.5143C118.362 41.1958 127.553 68.8536 125.704 88.3211Z" fill="#071B3B"/>
<path d="M48.1809 58.0498H40.4667V50.3354C40.4667 49.9313 40.3062 49.5439 40.0205 49.2582C39.7348 48.9725 39.3473 48.812 38.9433 48.812H29.7054C29.3014 48.812 28.9139 48.9725 28.6282 49.2582C28.3425 49.5439 28.182 49.9313 28.182 50.3354V58.0498H20.4678C20.0637 58.0498 19.6762 58.2103 19.3905 58.496C19.1048 58.7817 18.9443 59.1692 18.9443 59.5733V68.8111C18.9443 69.2152 19.1048 69.6027 19.3905 69.8884C19.6762 70.1741 20.0637 70.3346 20.4678 70.3346H28.182V78.049C28.182 78.453 28.3425 78.8405 28.6282 79.1262C28.9139 79.4119 29.3014 79.5724 29.7054 79.5724H38.9433C39.3473 79.5724 39.7348 79.4119 40.0205 79.1262C40.3062 78.8405 40.4667 78.453 40.4667 78.049V70.3346H48.1809C48.5849 70.3346 48.9724 70.1741 49.2581 69.8884C49.5438 69.6027 49.7043 69.2152 49.7043 68.8111V59.5733C49.7043 59.1692 49.5438 58.7817 49.2581 58.496C48.9724 58.2103 48.5849 58.0498 48.1809 58.0498ZM46.6574 67.2877H38.9433C38.5392 67.2877 38.1517 67.4482 37.866 67.7339C37.5803 68.0196 37.4198 68.4071 37.4198 68.8111V76.5256H31.2288V68.8111C31.2288 68.4071 31.0683 68.0196 30.7826 67.7339C30.4969 67.4482 30.1094 67.2877 29.7054 67.2877H21.9912V61.0967H29.7054C30.1094 61.0967 30.4969 60.9362 30.7826 60.6505C31.0683 60.3648 31.2288 59.9773 31.2288 59.5733V51.8588H37.4198V59.5733C37.4198 59.9773 37.5803 60.3648 37.866 60.6505C38.1517 60.9362 38.5392 61.0967 38.9433 61.0967H46.6574V67.2877ZM104.822 57.9604C101.386 57.9604 98.5904 60.7562 98.5904 64.1923C98.5904 67.6284 101.386 70.4242 104.822 70.4242C108.258 70.4242 111.054 67.6284 111.054 64.1923C111.054 60.7562 108.258 57.9604 104.822 57.9604ZM104.822 67.3773C103.066 67.3773 101.637 65.9486 101.637 64.1923C101.637 62.4361 103.066 61.0073 104.822 61.0073C106.579 61.0073 108.007 62.4361 108.007 64.1923C108.007 65.9486 106.579 67.3773 104.822 67.3773Z" fill="#071B3B"/>
</svg>
