<svg width="130" height="130" viewBox="0 0 130 130" fill="none" xmlns="http://www.w3.org/2000/svg">
<g clip-path="url(#clip0_206_7947)">
<path d="M77.4248 97.986V100.198H52.6999V97.986H0V98.896C0 100.328 0.519979 101.758 1.56247 102.801C2.60243 103.841 4.03491 104.363 5.46739 104.363H124.532C125.965 104.363 127.395 103.843 128.437 102.801C129.477 101.761 129.999 100.328 129.999 98.896V97.986H77.4248ZM17.4376 101.628H11.9725V100.978H17.4376V101.628ZM15.4849 95.9035H114.51C115.42 95.9035 116.332 95.5136 116.982 94.8636C117.632 94.2136 118.022 93.3011 118.022 92.3912V29.1487C118.022 28.2388 117.632 27.3263 116.982 26.6763C116.332 26.0263 115.42 25.6364 114.51 25.6364H15.4849C14.5749 25.6364 13.6624 26.0263 13.0124 26.6763C12.3624 27.3263 11.9725 28.2388 11.9725 29.1487V92.3886C11.9725 93.2986 12.3624 94.2111 13.0124 94.8611C13.7924 95.6436 14.5749 95.9035 15.4849 95.9035ZM65.0623 27.1988C65.7123 27.1988 66.2323 27.7188 66.2323 28.3688C66.2323 29.0188 65.7123 29.5387 65.0623 29.5387C64.4124 29.5387 63.8924 29.0188 63.8924 28.3688C63.8924 27.7188 64.4124 27.1988 65.0623 27.1988ZM17.5676 31.1012H112.56V90.4384H17.5676V31.1012Z" fill="#071B3B"/>
<rect x="17" y="31" width="96" height="60" fill="white"/>
</g>
<defs>
<clipPath id="clip0_206_7947">
<rect width="130" height="130" fill="white"/>
</clipPath>
</defs>
</svg>
