<svg width="101" height="100" viewBox="0 0 101 100" fill="none" xmlns="http://www.w3.org/2000/svg">
<path d="M61.6673 56.6666H35.0007C34.5586 56.6666 34.1347 56.8422 33.8221 57.1548C33.5096 57.4673 33.334 57.8913 33.334 58.3333V78.3333C33.334 78.7753 33.5096 79.1992 33.8221 79.5118C34.1347 79.8244 34.5586 80 35.0007 80H61.6673C62.1093 80 62.5333 79.8244 62.8458 79.5118C63.1584 79.1992 63.334 78.7753 63.334 78.3333V58.3333C63.334 57.8913 63.1584 57.4673 62.8458 57.1548C62.5333 56.8422 62.1093 56.6666 61.6673 56.6666ZM60.0007 76.6666H36.6673V60H60.0007V76.6666Z" fill="#071B3B"/>
<path d="M98.3333 61.4769V51.8433L100.153 43.3496C100.772 40.4528 100.443 37.4339 99.2151 34.7383C97.9871 32.0428 95.9251 29.8134 93.3333 28.3792V16.6667C93.7754 16.6667 94.1993 16.4911 94.5118 16.1785C94.8244 15.8659 95 15.442 95 15V1.66667C95 1.22464 94.8244 0.800716 94.5118 0.488155C94.1993 0.175595 93.7754 0 93.3333 0H83.3333C82.8913 0 82.4674 0.175595 82.1548 0.488155C81.8423 0.800716 81.6667 1.22464 81.6667 1.66667V3.33333H76.6667V6.66667H81.6667V8.33333C81.6667 8.77536 81.8423 9.19928 82.1548 9.51184C82.4674 9.8244 82.8913 10 83.3333 10H85V15C85 15.442 85.1756 15.8659 85.4882 16.1785C85.8007 16.4911 86.2246 16.6667 86.6667 16.6667H90V27.0763C87.7282 26.5102 85.3498 26.5317 83.0887 27.1389C80.8276 27.746 78.7582 28.9188 77.0756 30.5467C75.393 32.1746 74.1525 34.2041 73.471 36.4439C72.7894 38.6837 72.6893 41.0602 73.18 43.3494L75 51.8433V61.4769L73.4167 68.3427C72.6854 71.5149 73.1156 74.8442 74.6293 77.7263C76.143 80.6083 78.6399 82.8522 81.6667 84.0506V88.3333C81.6642 90.5427 80.7854 92.6609 79.2231 94.2231C77.6609 95.7854 75.5427 96.6642 73.3333 96.6667H58.3333C56.4131 96.6641 54.5525 95.9997 53.0651 94.7853C51.5777 93.5709 50.5544 91.8809 50.1677 90H66.6667C67.5504 89.9989 68.3976 89.6474 69.0225 89.0225C69.6474 88.3976 69.9989 87.5504 70 86.6667V13.3333C69.9989 12.4496 69.6474 11.6024 69.0225 10.9775C68.3976 10.3526 67.5504 10.001 66.6667 10H49.879C49.475 7.22499 48.0864 4.68785 45.9667 2.8519C43.847 1.01596 41.1376 0.00370757 38.3333 0H31.6667C28.5735 0.00347391 25.6081 1.23375 23.4209 3.42092C21.2338 5.6081 20.0035 8.57354 20 11.6667V91.6667C20 92.9927 19.4732 94.2645 18.5355 95.2022C17.5979 96.1399 16.3261 96.6667 15 96.6667C13.6739 96.6667 12.4021 96.1399 11.4645 95.2022C10.5268 94.2645 10 92.9927 10 91.6667V23.3333H13.3333C13.7435 23.3333 14.1392 23.1821 14.4448 22.9086C14.7504 22.6351 14.9445 22.2585 14.9898 21.8508L16.6565 6.85083C16.6824 6.61786 16.6588 6.38204 16.5874 6.15878C16.516 5.93552 16.3982 5.72984 16.2419 5.55517C16.0856 5.3805 15.8942 5.24078 15.6802 5.14511C15.4662 5.04945 15.2344 5 15 5H13.3333V0H10V5H6.66667V0H3.33333V5H1.66666C1.43226 5 1.20048 5.04945 0.986486 5.14511C0.772487 5.24078 0.581074 5.3805 0.424748 5.55517C0.268422 5.72984 0.1507 5.93552 0.0792685 6.15878C0.00783745 6.38204 -0.0156955 6.61786 0.0102066 6.85083L1.67687 21.8508C1.72219 22.2585 1.91622 22.6351 2.22184 22.9086C2.52745 23.1821 2.92319 23.3333 3.33333 23.3333H6.66667V91.6667C6.66667 93.8768 7.54464 95.9964 9.10744 97.5592C10.6702 99.122 12.7899 100 15 100C17.2101 100 19.3298 99.122 20.8926 97.5592C22.4554 95.9964 23.3333 93.8768 23.3333 91.6667V11.6667C23.3358 9.45729 24.2146 7.33912 25.7768 5.77685C27.3391 4.21458 29.4573 3.33581 31.6667 3.33333H38.3333C40.2537 3.3356 42.1146 3.99994 43.6022 5.21434C45.0899 6.42875 46.1133 8.11895 46.5 10H30C29.1163 10.001 28.269 10.3526 27.6441 10.9775C27.0192 11.6024 26.6677 12.4496 26.6667 13.3333V86.6667C26.6677 87.5504 27.0192 88.3976 27.6441 89.0225C28.269 89.6474 29.1163 89.9989 30 90H46.7877C47.1917 92.775 48.5803 95.3121 50.7 97.1481C52.8197 98.984 55.5291 99.9963 58.3333 100H73.3333C76.4265 99.9965 79.3919 98.7662 81.5791 96.5791C83.7662 94.3919 84.9965 91.4265 85 88.3333V84.8958C85.5529 84.9641 86.1095 84.9989 86.6667 85C88.7125 85 90.7319 84.5385 92.5746 83.6498C94.4173 82.761 96.0357 81.468 97.3093 79.867C98.5829 78.266 99.4789 76.3983 99.9305 74.4029C100.382 72.4076 100.378 70.3361 99.9177 68.3427L98.3333 61.4769ZM85 3.33333H91.6667V6.66667H85V3.33333ZM88.3333 10H91.6667V13.3333H88.3333V10ZM4.825 20L3.52875 8.33333H13.1379L11.8417 20H4.825ZM30 13.3333H66.6667L66.6687 86.6667H30V13.3333ZM94.8008 33.884C95.7842 35.0952 96.4828 36.5119 96.8452 38.0294C97.2075 39.5469 97.2242 41.1264 96.8942 42.6512L95.3194 50H92.0331L93.6602 41.864C93.9251 40.5478 93.8117 39.1836 93.3333 37.9292V32.4019C93.8704 32.8461 94.3619 33.3426 94.8008 33.884ZM90.2602 70.5208C90.3797 71.0589 90.3768 71.617 90.2517 72.1538C90.1267 72.6906 89.8827 73.1925 89.5378 73.6224C89.1928 74.0523 88.7557 74.3993 88.2588 74.6377C87.7618 74.8762 87.2177 74.9999 86.6665 74.9999C86.1153 74.9999 85.5711 74.8762 85.0741 74.6377C84.5772 74.3993 84.1401 74.0523 83.7952 73.6224C83.4502 73.1925 83.2062 72.6906 83.0812 72.1538C82.9561 71.617 82.9532 71.0589 83.0727 70.5208L84.6698 63.3333H88.6627L90.2602 70.5208ZM78.3333 60V53.3333H95V60H78.3333ZM82.9417 41.2106C82.8315 40.6595 82.8449 40.0908 82.981 39.5455C83.1172 39.0002 83.3726 38.492 83.729 38.0573C84.0853 37.6227 84.5336 37.2725 85.0416 37.0321C85.5496 36.7917 86.1046 36.667 86.6667 36.667C87.2287 36.667 87.7837 36.7917 88.2917 37.0321C88.7997 37.2725 89.248 37.6227 89.6044 38.0573C89.9607 38.492 90.2161 39.0002 90.3523 39.5455C90.4884 40.0908 90.5019 40.6595 90.3917 41.2106L88.6335 50H84.6998L82.9417 41.2106ZM78.5325 33.884C79.8753 32.2243 81.6934 31.0148 83.7431 30.4177C85.7927 29.8207 87.976 29.8646 90 30.5435V34.159C88.8074 33.5288 87.4605 33.2497 86.1156 33.354C84.7708 33.4584 83.4831 33.942 82.402 34.7487C81.3209 35.5553 80.4907 36.652 80.0076 37.9114C79.5246 39.1709 79.4086 40.5415 79.6731 41.8642L81.3002 50H78.014L76.4392 42.651C76.1091 41.1262 76.1259 39.5468 76.4882 38.0293C76.8505 36.5118 77.5492 35.0952 78.5325 33.884ZM78.6327 77.7917C77.6678 76.5851 76.9892 75.1752 76.648 73.6684C76.3069 72.1615 76.3121 70.5968 76.6633 69.0923L77.9925 63.3333H81.2556L79.8192 69.7971C79.5887 70.8223 79.5927 71.8863 79.8307 72.9097C80.0688 73.9332 80.5349 74.8897 81.1942 75.7079C81.3427 75.892 81.5004 76.0684 81.6667 76.2367V80.3723C80.4966 79.7183 79.466 78.8416 78.6327 77.7917ZM94.7006 77.7917C93.7419 79.0032 92.5207 79.9814 91.1291 80.6527C89.7375 81.3239 88.2117 81.6706 86.6667 81.6667C86.1084 81.6662 85.551 81.6208 85 81.5308V78.1327C85.5456 78.2656 86.1051 78.333 86.6667 78.3333C87.7171 78.3333 88.7541 78.0974 89.7011 77.643C90.6481 77.1886 91.481 76.5273 92.1383 75.7079C92.7956 74.8886 93.2604 73.9321 93.4986 72.909C93.7367 71.886 93.742 70.8225 93.5142 69.7971L92.0777 63.3333H95.3408L96.67 69.0923C97.0212 70.5968 97.0264 72.1615 96.6853 73.6684C96.3442 75.1752 95.6656 76.5851 94.7006 77.7917Z" fill="#071B3B"/>
<path d="M40 63.3334H46.6667V66.6667H40V63.3334ZM50 63.3334H56.6667V66.6667H50V63.3334ZM40 70H56.6667V73.3334H40V70Z" fill="#071B3B"/>
</svg>
