<svg width="24" height="24" viewBox="0 0 24 24" fill="none" xmlns="http://www.w3.org/2000/svg">
<path d="M9.98392 15.0858L15.2154 12L9.98392 8.91433V15.0858ZM21.6364 7.03205C21.7674 7.51548 21.8582 8.16348 21.9186 8.98633C21.9892 9.80919 22.0194 10.5189 22.0194 11.136L22.0799 12C22.0799 14.2526 21.9186 15.9086 21.6364 16.968C21.3844 17.8938 20.7998 18.4903 19.8926 18.7475C19.4188 18.8812 18.5519 18.9738 17.2214 19.0355C15.911 19.1075 14.7114 19.1383 13.6026 19.1383L11.9999 19.2C7.7764 19.2 5.14552 19.0355 4.10728 18.7475C3.20008 18.4903 2.61544 17.8938 2.36344 16.968C2.2324 16.4846 2.14168 15.8366 2.0812 15.0138C2.01064 14.1909 1.9804 13.4812 1.9804 12.864L1.91992 12C1.91992 9.74748 2.0812 8.09148 2.36344 7.03205C2.61544 6.10633 3.20008 5.50976 4.10728 5.25262C4.58104 5.11891 5.44792 5.02633 6.77848 4.96462C8.08888 4.89262 9.2884 4.86176 10.3972 4.86176L11.9999 4.80005C16.2234 4.80005 18.8543 4.96462 19.8926 5.25262C20.7998 5.50976 21.3844 6.10633 21.6364 7.03205Z" fill="white"/>
</svg>
