<svg width="24" height="24" viewBox="0 0 24 24" fill="none" xmlns="http://www.w3.org/2000/svg">
<g clip-path="url(#clip0_19_3023)">
<path fill-rule="evenodd" clip-rule="evenodd" d="M19.9917 3.95831C20.2396 3.85363 20.5109 3.81753 20.7774 3.85376C21.0439 3.88999 21.2958 3.99722 21.507 4.1643C21.7182 4.33138 21.8808 4.5522 21.9781 4.80377C22.0753 5.05534 22.1036 5.32847 22.06 5.59473L19.7851 19.4399C19.5644 20.7754 18.104 21.5413 16.8832 20.876C15.8621 20.3195 14.3455 19.462 12.9814 18.5673C12.2993 18.1195 10.21 16.6853 10.4668 15.6648C10.6874 14.7923 14.1981 11.5134 16.2042 9.564C16.9916 8.79812 16.6325 8.35631 15.7027 9.06079C13.3926 10.8099 9.68639 13.4699 8.46067 14.2186C7.37939 14.8788 6.81568 14.9916 6.14163 14.8788C4.9119 14.6735 3.77143 14.3555 2.84061 13.968C1.58279 13.4447 1.64397 11.7097 2.8396 11.2044L19.9917 3.95831Z" fill="white"/>
</g>
<defs>
<clipPath id="clip0_19_3023">
<rect width="24" height="24" fill="white"/>
</clipPath>
</defs>
</svg>
