<svg width="24" height="24" viewBox="0 0 24 24" fill="none" xmlns="http://www.w3.org/2000/svg">
<path d="M13.0362 1.92116C13.7717 1.91834 14.5072 1.92573 15.2426 1.94334L15.4381 1.95039C15.6639 1.95846 15.8866 1.96854 16.1558 1.98063C17.2282 2.03103 17.96 2.20037 18.602 2.44934C19.2673 2.70536 19.8277 3.0521 20.3881 3.61253C20.9005 4.11611 21.2971 4.72527 21.5503 5.39764C21.7993 6.03971 21.9686 6.7725 22.019 7.84498C22.0311 8.11309 22.0412 8.33686 22.0492 8.56265L22.0553 8.75819C22.0732 9.49319 22.0809 10.2284 22.0785 10.9636L22.0795 11.7156V13.036C22.082 13.7716 22.0742 14.5071 22.0563 15.2424L22.0502 15.438C22.0422 15.6638 22.0321 15.8865 22.02 16.1557C21.9696 17.2281 21.7983 17.9599 21.5503 18.602C21.298 19.2751 20.9013 19.8847 20.3881 20.3881C19.8841 20.9005 19.2747 21.297 18.602 21.5503C17.96 21.7993 17.2282 21.9686 16.1558 22.019C15.8866 22.0311 15.6639 22.0412 15.4381 22.0492L15.2426 22.0553C14.5072 22.0732 13.7717 22.0809 13.0362 22.0785L12.2842 22.0795H10.9648C10.2293 22.082 9.49375 22.0742 8.75842 22.0563L8.56288 22.0502C8.32361 22.0416 8.08438 22.0315 7.84522 22.02C6.77277 21.9696 6.041 21.7982 5.39792 21.5503C4.7253 21.2976 4.11605 20.901 3.61285 20.3881C3.09985 19.8844 2.7029 19.2749 2.44968 18.602C2.20071 17.9599 2.03138 17.2281 1.98098 16.1557C1.96975 15.9165 1.95968 15.6773 1.95074 15.438L1.9457 15.2424C1.92712 14.5071 1.91872 13.7716 1.9205 13.036V10.9636C1.91769 10.2284 1.92508 9.4932 1.94268 8.75819L1.94973 8.56265C1.9578 8.33686 1.96788 8.11309 1.97997 7.84498C2.03037 6.77149 2.19971 6.04072 2.44867 5.39764C2.70204 4.72494 3.09977 4.11595 3.61386 3.61354C4.11672 3.10023 4.72558 2.70291 5.39792 2.44934C6.041 2.20037 6.77176 2.03103 7.84522 1.98063L8.56288 1.95039L8.75842 1.94535C9.4934 1.92678 10.2286 1.91838 10.9638 1.92015L13.0362 1.92116ZM12 6.96099C11.3322 6.95155 10.6692 7.07491 10.0496 7.32393C9.42992 7.57294 8.86592 7.94263 8.39037 8.41151C7.91482 8.88039 7.53719 9.43911 7.27945 10.0552C7.0217 10.6713 6.88897 11.3325 6.88897 12.0003C6.88897 12.6682 7.0217 13.3293 7.27945 13.9454C7.53719 14.5615 7.91482 15.1202 8.39037 15.5891C8.86592 16.058 9.42992 16.4277 10.0496 16.6767C10.6692 16.9257 11.3322 17.0491 12 17.0396C13.3366 17.0396 14.6185 16.5087 15.5636 15.5635C16.5088 14.6184 17.0397 13.3365 17.0397 11.9998C17.0397 10.6632 16.5088 9.38127 15.5636 8.43611C14.6185 7.49096 13.3366 6.96099 12 6.96099ZM12 8.97692C12.4017 8.96952 12.8008 9.04224 13.174 9.19082C13.5473 9.3394 13.8872 9.56088 14.1739 9.84231C14.4606 10.1237 14.6884 10.4595 14.8439 10.8299C14.9993 11.2003 15.0795 11.5981 15.0795 11.9998C15.0796 12.4016 14.9996 12.7993 14.8442 13.1698C14.6889 13.5403 14.4612 13.8761 14.1746 14.1576C13.888 14.4391 13.5482 14.6607 13.175 14.8094C12.8018 14.9581 12.4027 15.031 12.001 15.0237C11.199 15.0237 10.4299 14.7051 9.86281 14.138C9.29573 13.5709 8.97715 12.8018 8.97715 11.9998C8.97715 11.1978 9.29573 10.4287 9.86281 9.86159C10.4299 9.2945 11.199 8.97591 12.001 8.97591L12 8.97692ZM17.2917 5.44904C16.9665 5.46206 16.659 5.60039 16.4336 5.83506C16.2081 6.06974 16.0822 6.38255 16.0822 6.70799C16.0822 7.03343 16.2081 7.34624 16.4336 7.58092C16.659 7.81559 16.9665 7.95393 17.2917 7.96694C17.6259 7.96694 17.9463 7.8342 18.1826 7.59791C18.4189 7.36162 18.5517 7.04114 18.5517 6.70698C18.5517 6.37282 18.4189 6.05235 18.1826 5.81606C17.9463 5.57977 17.6259 5.44703 17.2917 5.44703V5.44904Z" fill="white"/>
</svg>
